<svg enable-background="new 0 0 399.5 39.2" viewBox="0 0 399.5 39.2" xmlns="http://www.w3.org/2000/svg"><path d="m56.2.2h-51.4c-2.6-.1-4.8 2-4.8 4.6v.2 28.9c0 2.7 2.2 4.8 4.8 4.8h51.3c2.6.1 4.8-2 4.8-4.6 0-.1 0-.1 0-.2v-28.9c.1-2.7-2.1-4.8-4.7-4.8z" fill="#f8f8f8"/><path d="m56.2 1.8c1.8 0 3.2 1.4 3.2 3.2v28.9c0 1.8-1.4 3.2-3.2 3.2h-51.4c-1.8 0-3.2-1.4-3.2-3.2v-28.9c0-1.8 1.4-3.2 3.2-3.2z" fill="#f8f8f8"/><path d="m38.3 13.5c.4-1.3 0-2.7-1-3.7-.9-1.1-2.7-1.6-4.9-1.6h-6.6c-.5 0-.9.3-1 .8l-2.4 16.2c0 .3.2.6.5.6h4.3l.6-5.5 2.9-3.5z" fill="#003087"/><path d="m38.3 13.5-.3.3c-.8 4.5-3.5 6.1-7.4 6.1h-1.8c-.5 0-.9.3-1 .8l-1 6.3-.3 1.6c0 .3.2.6.5.6h3.4c.4 0 .8-.3.8-.6v-.2l.6-3.9v-.2c0-.3.5-.6.8-.6h.5c3.4 0 5.9-1.3 6.6-5.1.4-1.3.2-2.7-.6-3.9-.1-.4-.3-.9-.8-1.2z" fill="#3086c8"/><path d="m37.4 13.2c-.1-.1-.3-.2-.5-.2s-.4 0-.5-.2c-.6-.1-1.2-.2-1.8-.2h-4.8c-.2 0-.3 0-.3.2-.3.2-.5.4-.5.7l-1.1 7.1v.2c.1-.5.5-.9 1-.8h2.1c4 0 6.6-1.6 7.4-6.1v-.3c-.2-.2-.5-.3-.8-.3z" fill="#012169"/><path d="m394.6.2h-51.9c-2.6-.1-4.8 2-4.9 4.7v.2 29.2c0 2.7 2.2 4.9 4.9 4.9h51.9c2.6 0 4.8-2.1 4.9-4.7 0-.1 0-.1 0-.2v-29.3c0-2.6-2.2-4.8-4.9-4.8z" fill="#f8f8f8"/><path d="m394.6 1.8c1.8 0 3.2 1.5 3.2 3.2v29.2c0 1.8-1.4 3.2-3.2 3.2h-51.9c-1.8 0-3.2-1.5-3.2-3.2v-29.2c0-1.8 1.4-3.2 3.2-3.2z" fill="#f8f8f8"/><circle cx="362.1" cy="19.6" fill="#eb001b" r="11.4"/><circle cx="375.1" cy="19.6" fill="#f79e1b" r="11.4"/><path d="m373.5 19.6c0-3.7-1.8-7.2-4.9-9.2-3 2.1-4.8 5.6-4.9 9.2 0 3.7 1.8 7.2 4.9 9.3 3.1-2.1 4.9-5.5 4.9-9.3z" fill="#ff5f00"/><path d="m258.2.2h-52c-2.6-.1-4.8 2.1-4.9 4.7v.2 29.2c0 2.7 2.2 4.9 4.9 4.9h52c2.6.1 4.8-2 4.9-4.7 0-.1 0-.1 0-.2v-29.2c0-2.7-2.2-4.9-4.9-4.9z" fill="#f8f8f8"/><path d="m258.2 1.8c1.8 0 3.2 1.5 3.2 3.2v29.2c0 1.8-1.5 3.3-3.2 3.3h-52c-1.8 0-3.2-1.5-3.2-3.3v-29.1c0-1.8 1.5-3.2 3.2-3.2z" fill="#f8f8f8"/><path d="m230.8 19.6v5.2h-1.7v-12.8h4.4c1.1 0 2.1.4 2.8 1.2 1.5 1.4 1.6 3.7.2 5.2l-.2.2c-.8.7-1.8 1.1-2.8 1.1zm0-6v4.5h2.8c.6 0 1.2-.2 1.6-.7.9-.9.8-2.3-.1-3.2-.4-.4-1-.6-1.6-.6zm10.5 2.2c1.1-.1 2.1.3 2.9 1 .7.7 1.1 1.7 1.1 2.7v5.4h-1.6v-1.2h-.1c-.6 1-1.6 1.6-2.7 1.6-.9 0-1.8-.3-2.4-.9-.6-.5-1-1.3-1-2.1s.3-1.7 1-2.2c.8-.6 1.8-.9 2.8-.8.8 0 1.7.2 2.4.5v-.3c0-.6-.2-1.1-.7-1.5-.4-.4-1-.6-1.6-.6-.9 0-1.7.4-2.1 1.2l-1.4-.9c.6-1.3 2-2 3.4-1.9zm-2.1 6.4c0 .4.2.8.6 1.1s.8.4 1.3.4c.7 0 1.4-.3 1.9-.8s.8-1.1.8-1.8c-.6-.4-1.4-.7-2.1-.6-.6 0-1.2.1-1.7.5-.6.3-.8.7-.8 1.2zm15.1-6.1-5.5 12.7h-1.7l2.1-4.4-3.6-8.2h1.8l2.7 6.3 2.6-6.3z" fill="#5f6368"/><path d="m224.1 18.5c0-.5 0-1-.1-1.5h-7v2.8h4c-.2.9-.7 1.7-1.5 2.2v1.8h2.4c1.4-1.3 2.2-3.2 2.2-5.3z" fill="#4285f4"/><path d="m217 25.7c1.8.1 3.6-.6 4.9-1.8l-2.4-1.9c-2.1 1.3-4.8.7-6.2-1.3-.2-.3-.4-.6-.5-1h-2.4v1.9c1.3 2.5 3.8 4.1 6.6 4.1z" fill="#34a853"/><path d="m212.9 19.8c-.3-.9-.3-1.9 0-2.8v-2h-2.4c-1.1 2.1-1.1 4.5 0 6.6z" fill="#fbbc04"/><path d="m217 13.9c1.1 0 2.1.4 2.8 1.1l2.1-2.1c-1.4-1.3-3.1-2-5-1.9-2.8 0-5.3 1.6-6.5 4.1l2.4 1.9c.6-1.9 2.3-3.1 4.2-3.1z" fill="#ea4335"/><path d="m191.5.2h-51.1c-.4 0-.8 0-1.1.1-.4.1-.7.2-1.1.4-.7.3-1.3.9-1.6 1.6-.2.3-.3.7-.4 1.1s-.1.8-.1 1.1v30.4c0 .4 0 .8.1 1.1.1.4.2.7.4 1.1.2.3.4.7.7.9.3.3.6.5.9.7s.7.3 1.1.4.8.1 1.1.1h52.2c.4 0 .8 0 1.1-.1.4-.1.7-.2 1.1-.4.7-.3 1.3-.9 1.6-1.6.2-.3.3-.7.4-1.1s.1-.8.1-1.1v-.5c0-.2 0-.4 0-.6v-28c0-.2 0-.4 0-.6v-.7c0-.4 0-.8-.1-1.1-.1-.4-.2-.7-.4-1.1-.3-.7-.9-1.3-1.6-1.6-.3-.2-.7-.3-1.1-.4s-.8-.1-1.1-.1z" fill="#f8f8f8"/><path d="m191.5 1.5h1.1c.3 0 .6 0 .9.1.3 0 .5.1.7.2.4.2.8.6 1 1 .1.2.2.5.2.7 0 .3.1.6.1.9v.5 29.3.5c0 .3 0 .7-.1 1-.1.8-.6 1.4-1.3 1.8-.2.1-.5.2-.7.2-.3.1-.6.1-.9.1h-52.1c-.3 0-.6 0-.9-.1-.3 0-.5-.1-.7-.2s-.4-.3-.6-.4c-.2-.2-.3-.4-.4-.6s-.2-.5-.2-.7c0-.3-.1-.6-.1-.9 0-.2 0-.3 0-.5v-29.4c0-.2 0-.3 0-.5 0-.3 0-.7.1-1 0-.2.1-.5.2-.7s.3-.4.4-.6c.2-.2.4-.3.6-.4s.5-.2.7-.2c.3-.1.6-.1.9-.1z" fill="#f8f8f8"/><path d="m152.1 13.3c.6-.7.8-1.5.8-2.4-.9.1-1.6.5-2.2 1.1s-.8 1.5-.8 2.3c.8.1 1.6-.3 2.2-1"/><path d="m152.9 14.5c-1.2-.1-2.3.7-2.9.7s-1.5-.7-2.5-.6c-1.3 0-2.5.7-3.1 1.9-1.3 2.3-.4 5.7.9 7.5.6.9 1.4 1.9 2.4 1.9s1.3-.6 2.4-.6 1.5.6 2.5.6 1.7-.9 2.3-1.8c.4-.7.8-1.4 1-2.1-1.2-.5-2-1.7-2-3 0-1.2.6-2.2 1.6-2.9-.6-.9-1.6-1.5-2.6-1.6"/><path d="m165.1 12c2.4-.1 4.4 1.7 4.5 4.1v.4c.1 2.4-1.8 4.4-4.2 4.6-.1 0-.3 0-.4 0h-3v4.7h-2v-13.8zm-3 7.3h2.5c1.9 0 2.9-1 2.9-2.7s-1.1-2.7-2.9-2.7h-2.5z"/><path d="m170.2 22.9c0-1.8 1.4-2.8 3.8-2.9l2.7-.2v-.8c0-1.1-.7-1.7-2-1.7-.9-.1-1.8.5-2 1.4h-2c.1-1.8 1.7-3.1 4-3.1 2.4 0 4 1.3 4 3.3v6.9h-2v-1.6h-.1c-.7 1.1-1.9 1.8-3.1 1.8-1.9-.1-3.3-1.3-3.3-3.1zm6.5-.9v-.8l-2.4.1c-1.3.1-2 .6-2 1.5s.7 1.4 1.9 1.4c1.3.1 2.4-.8 2.5-2.2z"/><path d="m180.6 29.5v-1.7h.6c.9.1 1.6-.5 1.8-1.4l.2-.6-3.6-10h2.2l2.5 8.1 2.5-8.1h2.2l-3.8 10.5c-.9 2.4-1.8 3.2-3.9 3.2-.2 0-.5 0-.7 0z"/><path d="m122.9.2h-51.9c-2.6-.1-4.8 2-4.9 4.7v.2 29.2c0 2.7 2.1 4.9 4.8 4.9h51.9c2.6.1 4.8-2 4.9-4.7 0-.1 0-.1 0-.2v-29.3c.1-2.6-2.1-4.8-4.8-4.8z" opacity=".07"/><path d="m122.9 1.8c1.8 0 3.2 1.5 3.2 3.2v29.2c0 1.8-1.5 3.2-3.2 3.2h-51.9c-1.8 0-3.2-1.5-3.2-3.2v-29.2c0-1.8 1.5-3.2 3.2-3.2z" fill="#006fcf"/><path d="m80.7 16.8 1.3 3h-2.5zm26 .2h-4.8v1.3h4.8v2h-4.7v1.5h4.8v1.2l3.4-3.6-3.4-3.8zm-22.8-3.8h6.5l1.4 3.1 1.3-3.1h16.9l1.8 1.9 1.8-1.9h7.7l-5.7 6.2 5.7 6.2h-7.8l-1.8-1.9-1.8 1.9h-27.5l-.8-1.9h-1.8l-.8 1.9h-6.3l5.3-12.5h5.9zm14 1.7h-3.6l-2.4 5.7-2.6-5.7h-3.6v7.8l-3.3-7.8h-3.2l-3.9 9h2.5l.8-1.9h4.2l.8 1.9h4.4v-6.5l2.8 6.4h1.9l2.8-6.4v6.4h2.5zm15.2 4.5 4.1-4.5h-3l-2.6 2.8-2.5-2.8h-9.5v9h9.4l2.6-2.8 2.5 2.8h3z" fill="#fff"/><path d="m328.2.1h-52c-2.6-.1-4.8 2.1-4.9 4.7v.2 29.3c0 2.7 2.2 4.9 4.9 4.9h52c2.6.1 4.8-2 4.9-4.7 0-.1 0-.1 0-.2v-29.3c0-2.7-2.2-4.9-4.9-4.9z" fill="#f8f8f8"/><path d="m328.2 1.7c1.8 0 3.2 1.5 3.2 3.3v29.3c0 1.8-1.5 3.2-3.2 3.2h-52c-1.8 0-3.2-1.5-3.2-3.2v-29.3c0-1.8 1.5-3.3 3.2-3.3z" fill="#f8f8f8"/><path clip-rule="evenodd" d="m311.7 16.1-.3-.2c-.6-.3-1.5-.6-2.6-.5-1.4 0-2 .6-2 1.2s.7 1.1 2 1.7c2 1 3 2.2 3 3.7 0 2.8-2.4 4.7-6.2 4.7-1.6 0-3.1-.3-3.9-.7l.5-3.1.5.2c1.2.5 1.9.7 3.3.7 1 0 2.1-.4 2.1-1.3 0-.6-.5-1-1.8-1.7-1.4-.6-3.1-1.8-3.1-3.7 0-2.7 2.5-4.5 6-4.5 1.4 0 2.5.3 3.2.6zm-16 10.4 2.2-13.7h3.5l-2.2 13.7zm-8-12.6 1.2 6.3c-1.4-4-4.7-6.2-8.6-7.2v-.3h5.7c.9.1 1.5.4 1.7 1.2zm5.1-1.1h3.8l-5.6 13.7h-3.8l-2.9-10.9c2.1.8 3.9 2.7 4.6 4.7l.4 1.9zm28.4 0 2.9 13.7h-3.3l-.4-2.1h-4.5l-.7 2.1h-3.7l5.3-12.6c.4-.9 1-1.1 1.8-1.1zm-2.2 4.9-.2-1.2-.5 1.3s-1.1 3-1.4 3.8h2.9z" fill="#142688" fill-rule="evenodd"/></svg>